<?xml version="1.0" encoding="UTF-8" standalone="no"?>
<svg
   width="32.344151"
   height="32.344101"
   viewBox="0 0 32.344151 32.344101"
   fill="none"
   version="1.1"
   id="svg4"
   sodipodi:docname="sm-instagram_dark.svg"
   inkscape:version="1.1.2 (0a00cf5339, 2022-02-04)"
   xmlns:inkscape="http://www.inkscape.org/namespaces/inkscape"
   xmlns:sodipodi="http://sodipodi.sourceforge.net/DTD/sodipodi-0.dtd"
   xmlns="http://www.w3.org/2000/svg"
   xmlns:svg="http://www.w3.org/2000/svg">
  <defs
     id="defs8" />
  <sodipodi:namedview
     id="namedview6"
     pagecolor="#ffffff"
     bordercolor="#000000"
     borderopacity="0.25"
     inkscape:pageshadow="2"
     inkscape:pageopacity="0.0"
     inkscape:pagecheckerboard="0"
     showgrid="false"
     inkscape:zoom="23.69697"
     inkscape:cx="16.162404"
     inkscape:cy="16.5"
     inkscape:window-width="1920"
     inkscape:window-height="957"
     inkscape:window-x="0"
     inkscape:window-y="0"
     inkscape:window-maximized="1"
     inkscape:current-layer="svg4" />
  <path
     fill-rule="evenodd"
     clip-rule="evenodd"
     d="M 9.50476,0.0970324 C 11.22925,0.0176422 11.77915,0 16.17205,0 c 4.3929,0 4.9428,0.0191124 6.6658,0.0970324 1.7231,0.0779196 2.8993,0.3528446 3.9284,0.7512656 1.0776,0.407242 2.0553,1.043832 2.8639,1.867142 0.8233,0.80713 1.4584,1.78333 1.8642,2.86245 0.3999,1.02913 0.6734,2.20528 0.7527,3.9254 0.0794,1.72751 0.0971,2.27731 0.0971,6.66881 0,4.3929 -0.0191,4.9427 -0.0971,6.6673 -0.0779,1.7201 -0.3528,2.8962 -0.7527,3.9254 -0.4058,1.0792 -1.0419,2.0571 -1.8642,2.8654 -0.8086,0.8233 -1.7863,1.4584 -2.8639,1.8642 -1.0291,0.3999 -2.2053,0.6733 -3.9254,0.7527 -1.726,0.0794 -2.2759,0.097 -6.6688,0.097 -4.3929,0 -4.9428,-0.0191 -6.66729,-0.097 C 7.78464,32.1692 6.60849,31.8943 5.57936,31.4944 4.50013,31.0885 3.52231,30.4524 2.71397,29.6302 1.89122,28.8225 1.25453,27.8452 0.8483,26.7662 0.449877,25.7371 0.176423,24.561 0.097032,22.8408 0.017642,21.1134 0,20.5635 0,16.1721 0,11.7791 0.019112,11.2293 0.097032,9.50623 0.174952,7.78317 0.449877,6.60702 0.8483,5.57789 1.25513,4.49889 1.89231,3.52156 2.71544,2.71397 3.52263,1.8914 4.49947,1.25472 5.57789,0.848298 6.60702,0.449877 7.78317,0.176423 9.50329,0.0970324 Z M 22.70705,3.008 c -1.7054,-0.07792 -2.217,-0.09409 -6.535,-0.09409 -4.3179,0 -4.8296,0.01617 -6.53497,0.09409 C 8.05957,3.08004 7.20392,3.34321 6.63349,3.56521 5.87928,3.85924 5.33972,4.20768 4.7737,4.7737 4.23715,5.29569 3.82422,5.93115 3.56521,6.63349 3.34321,7.20392 3.08004,8.05957 3.008,9.63708 2.93008,11.3425 2.91391,11.8541 2.91391,16.1721 c 0,4.3179 0.01617,4.8295 0.09409,6.5349 0.07204,1.5776 0.33521,2.4332 0.55721,3.0036 0.25875,0.7013 0.67187,1.3379 1.20849,1.8598 0.52192,0.5366 1.15851,0.9498 1.85979,1.2085 0.57043,0.222 1.42608,0.4852 3.00359,0.5572 1.70537,0.0779 2.21557,0.0941 6.53497,0.0941 4.3194,0 4.8296,-0.0162 6.535,-0.0941 1.5775,-0.072 2.4332,-0.3352 3.0036,-0.5572 0.7542,-0.294 1.2938,-0.6424 1.8598,-1.2085 0.5366,-0.5219 0.9497,-1.1585 1.2085,-1.8598 0.222,-0.5704 0.4851,-1.426 0.5572,-3.0036 0.0779,-1.7054 0.0941,-2.217 0.0941,-6.5349 0,-4.318 -0.0162,-4.8296 -0.0941,-6.53502 -0.0721,-1.57751 -0.3352,-2.43316 -0.5572,-3.00359 -0.2941,-0.75421 -0.6425,-1.29377 -1.2085,-1.85979 -0.522,-0.53651 -1.1575,-0.94943 -1.8598,-1.20849 -0.5704,-0.222 -1.4261,-0.48517 -3.0036,-0.55721 z m -8.6006,18.1495 c 1.1536,0.4802 2.4381,0.545 3.6342,0.1833 1.1961,-0.3616 2.2295,-1.1273 2.9237,-2.1663 0.6943,-1.0389 1.0063,-2.2866 0.8828,-3.5301 -0.1235,-1.2434 -0.6749,-2.4054 -1.5599,-3.2875 -0.5643,-0.5638 -1.2465,-0.9956 -1.9975,-1.2641 -0.7511,-0.2686 -1.5524,-0.3673 -2.3462,-0.289 -0.7938,0.0783 -1.5604,0.3317 -2.2445,0.7418 -0.6842,0.4101 -1.2689,0.9668 -1.7121,1.63 -0.4432,0.6632 -0.7338,1.4164 -0.8509,2.2054 -0.1171,0.7891 -0.0579,1.5942 0.1735,2.3576 0.2314,0.7633 0.6292,1.4659 1.1647,2.0571 0.5355,0.5911 1.1954,1.0562 1.9322,1.3618 z m -3.8122,-10.8632 c 0.7719,-0.77193 1.6883,-1.38422 2.6968,-1.80196 1.0085,-0.41775 2.0894,-0.63276 3.181,-0.63276 1.0916,0 2.1725,0.21501 3.1811,0.63275 1.0085,0.41775 1.9248,1.03004 2.6967,1.80197 0.7719,0.7718 1.3842,1.6882 1.8019,2.6967 0.4178,1.0085 0.6328,2.0895 0.6328,3.1811 0,1.0916 -0.215,2.1725 -0.6328,3.181 -0.4177,1.0085 -1.03,1.9249 -1.8019,2.6968 -1.5589,1.5589 -3.6732,2.4346 -5.8778,2.4346 -2.2046,0 -4.3189,-0.8757 -5.8778,-2.4346 -1.55889,-1.5589 -2.43466,-3.6732 -2.43466,-5.8778 0,-2.2046 0.87577,-4.319 2.43466,-5.8778 z m 16.0339,-1.19678 c 0.1912,-0.18044 0.3444,-0.39742 0.4503,-0.6381 0.1059,-0.24068 0.1625,-0.50016 0.1663,-0.76309 0.0038,-0.26293 -0.0451,-0.52395 -0.144,-0.76761 -0.0988,-0.24367 -0.2456,-0.46502 -0.4315,-0.65096 -0.186,-0.18594 -0.4073,-0.33268 -0.651,-0.43153 -0.2436,-0.09886 -0.5047,-0.14782 -0.7676,-0.14399 -0.2629,0.00384 -0.5224,0.06039 -0.7631,0.1663 -0.2407,0.10592 -0.4576,0.25905 -0.6381,0.45033 -0.3509,0.372 -0.543,0.86612 -0.5356,1.37746 0.0075,0.51134 0.2139,0.99965 0.5755,1.36127 0.3617,0.36161 0.85,0.56805 1.3613,0.57551 0.5113,0.00745 1.0055,-0.18467 1.3775,-0.53559 z"
     fill="#C0E3E5"
     id="path2" />
</svg>
