<?xml version="1.0" encoding="UTF-8" standalone="no"?>
<svg
   width="32.344101"
   height="32.344101"
   viewBox="0 0 32.344101 32.344101"
   fill="none"
   version="1.1"
   id="svg4"
   sodipodi:docname="sm-linkedin_dark.svg"
   inkscape:version="1.1.2 (0a00cf5339, 2022-02-04)"
   xmlns:inkscape="http://www.inkscape.org/namespaces/inkscape"
   xmlns:sodipodi="http://sodipodi.sourceforge.net/DTD/sodipodi-0.dtd"
   xmlns="http://www.w3.org/2000/svg"
   xmlns:svg="http://www.w3.org/2000/svg">
  <defs
     id="defs8" />
  <sodipodi:namedview
     id="namedview6"
     pagecolor="#ffffff"
     bordercolor="#000000"
     borderopacity="0.25"
     inkscape:pageshadow="2"
     inkscape:pageopacity="0.0"
     inkscape:pagecheckerboard="0"
     showgrid="false"
     inkscape:zoom="23.69697"
     inkscape:cx="16.5"
     inkscape:cy="16.5"
     inkscape:window-width="1920"
     inkscape:window-height="957"
     inkscape:window-x="0"
     inkscape:window-y="0"
     inkscape:window-maximized="1"
     inkscape:current-layer="svg4" />
  <path
     d="M 0,2.31665 C 0,1.03703 1.06331,0 2.37527,0 H 29.9689 c 1.3119,0 2.3752,1.03703 2.3752,2.31665 V 30.0275 c 0,1.2796 -1.0633,2.3166 -2.3752,2.3166 H 2.37527 C 1.06331,32.3441 0,31.3071 0,30.0275 Z M 9.99231,27.0761 V 12.4707 H 5.13867 V 27.0761 Z M 7.5665,10.4755 c 1.69201,0 2.7452,-1.11996 2.7452,-2.52289 C 10.2814,6.51936 9.26053,5.42977 7.59885,5.42977 c -1.66168,0 -2.74723,1.09161 -2.74723,2.52284 0,1.40293 1.0532,2.52289 2.68254,2.52289 z m 9.9216,16.6006 v -8.1568 c 0,-0.4367 0.0323,-0.8733 0.1617,-1.1846 0.3497,-0.8713 1.1482,-1.7749 2.4905,-1.7749 1.7567,0 2.4581,1.3382 2.4581,3.3032 v 7.8131 h 4.8537 v -8.3772 c 0,-4.4877 -2.3935,-6.5739 -5.5875,-6.5739 -2.5754,0 -3.7297,1.4151 -4.3765,2.4117 v 0.0505 h -0.0324 c 0.0108,-0.0169 0.0215,-0.0337 0.0324,-0.0505 v -2.066 h -4.8517 c 0.0607,1.3706 0,14.6054 0,14.6054 z"
     fill="#1820dd"
     id="path2" />
</svg>
