<?xml version="1.0" encoding="UTF-8" standalone="no"?>
<svg
   width="23.247185"
   height="27.469294"
   viewBox="0 0 23.247185 27.469294"
   fill="none"
   version="1.1"
   id="svg4"
   sodipodi:docname="sm-tiktok_dark.svg"
   inkscape:version="1.1.2 (0a00cf5339, 2022-02-04)"
   xmlns:inkscape="http://www.inkscape.org/namespaces/inkscape"
   xmlns:sodipodi="http://sodipodi.sourceforge.net/DTD/sodipodi-0.dtd"
   xmlns="http://www.w3.org/2000/svg"
   xmlns:svg="http://www.w3.org/2000/svg">
  <defs
     id="defs8" />
  <sodipodi:namedview
     id="namedview6"
     pagecolor="#ffffff"
     bordercolor="#000000"
     borderopacity="0.25"
     inkscape:pageshadow="2"
     inkscape:pageopacity="0.0"
     inkscape:pagecheckerboard="0"
     showgrid="false"
     inkscape:zoom="3.3706897"
     inkscape:cx="99.089514"
     inkscape:cy="6.5268542"
     inkscape:window-width="1920"
     inkscape:window-height="957"
     inkscape:window-x="0"
     inkscape:window-y="0"
     inkscape:window-maximized="1"
     inkscape:current-layer="svg4" />
  <path
     d="m 7.8476748,27.469293 c -0.45766,-0.0731 -0.91946,-0.1255 -1.37228,-0.2231 -3.15322,-0.6836 -5.74453796,-3.4139 -6.32920796,-6.6557 -0.822817,-4.5596 1.90310796,-8.8673 6.28088796,-9.9219 0.94913,-0.2288 1.91001,-0.274 2.87779,-0.1556 0.07524,0.0093 0.14841,0.0344 0.22986,0.0538 v 4.5115 c -0.25264,-0.0459 -0.49217,-0.0983 -0.73446,-0.1327 -2.07499,-0.2941 -4.03263,1.203 -4.36535,3.3357 -0.33617,2.1557 1.02231,4.2002 3.07935,4.6335 2.40426,0.5057 4.6497202,-1.3307 4.6856202,-3.8759 0.0332,-2.3444 0.0152,-4.6895 0.0159,-7.0338 0.0014,-3.88381 0,-7.76762 0,-11.65143 V 0 h 4.326 c 0.0607,1.887383 0.6951,3.526563 1.9935,4.855843 1.2978,1.32856 2.8785,1.98064 4.7119,2.01507 v 4.45768 c -1.2101,0.0065 -2.3725,-0.1951 -3.5059,-0.5896 -1.1362,-0.396 -2.18,-0.9735 -3.1891,-1.76333 0,0.15063 0,0.25103 0,0.35083 0.011,3.1499 0.0255,6.2999 0.0324,9.4498 0.009,4.1005 -2.5416,7.4771 -6.3844,8.4434 -0.3997002,0.1004 -0.8152502,0.132 -1.2232102,0.1973 -0.08352,0.0136 -0.16636,0.0344 -0.24919,0.0516 h -0.88011 z"
     fill="#1820dd"
     id="path2" />
</svg>
