<?xml version="1.0" encoding="UTF-8" standalone="no"?>
<svg
   id="Layer_1"
   version="1.1"
   viewBox="0 0 92.997565 43.010023"
   sodipodi:docname="favikon.svg"
   width="92.997566"
   height="43.010025"
   inkscape:version="1.1.2 (0a00cf5339, 2022-02-04)"
   xmlns:inkscape="http://www.inkscape.org/namespaces/inkscape"
   xmlns:sodipodi="http://sodipodi.sourceforge.net/DTD/sodipodi-0.dtd"
   xmlns="http://www.w3.org/2000/svg"
   xmlns:svg="http://www.w3.org/2000/svg">
  <sodipodi:namedview
     id="namedview14"
     pagecolor="#ffffff"
     bordercolor="#000000"
     borderopacity="0.25"
     inkscape:pageshadow="2"
     inkscape:pageopacity="0.0"
     inkscape:pagecheckerboard="0"
     showgrid="false"
     inkscape:zoom="3.7156128"
     inkscape:cx="47.098557"
     inkscape:cy="-0.26913461"
     inkscape:window-width="1920"
     inkscape:window-height="957"
     inkscape:window-x="0"
     inkscape:window-y="0"
     inkscape:window-maximized="1"
     inkscape:current-layer="layer1" />
  <!-- Generator: Adobe Illustrator 29.0.1, SVG Export Plug-In . SVG Version: 2.1.0 Build 192)  -->
  <defs
     id="defs7">
    <style
       id="style2">
      .st0 {
        fill: none;
      }

      .st1 {
        fill: #1820dd;
      }

      .st2 {
        clip-path: url(#clippath);
      }
    </style>
    <clipPath
       id="clippath">
      <rect
         class="st0"
         x="101.99"
         y="270.98999"
         width="637.22998"
         height="53.209999"
         id="rect4" />
    </clipPath>
  </defs>
  <g
     inkscape:groupmode="layer"
     id="layer1"
     inkscape:label="Layer 1"
     style="display:inline"
     sodipodi:insensitive="true"
     transform="translate(0.1272087,-0.08725797)">
    <g
       class="st2"
       clip-path="url(#clippath)"
       id="g11"
       transform="translate(-101.99,-270.99)">
      <path
         id="path9"
         class="st1"
         transform="translate(101.99,270.99)"
         d="m 6.9707031,1.1894531 c -0.83,0 -1.3704687,0.4707813 -1.4804687,1.3007813 L 0.01953125,41.460938 c -0.12,0.829999 0.2813278,1.298828 1.11132815,1.298828 H 12.470703 c 0.83,0 1.358516,-0.468844 1.478516,-1.298828 l 2.041015,-14.5 h 15.878907 l -2.039063,14.5 c -0.11,0.829999 0.289141,1.298828 1.119141,1.298828 h 11.339843 c 0.830003,0 1.360469,-0.468844 1.480469,-1.298828 L 49.25,2.4902344 c 0.12,-0.83 -0.289141,-1.3007813 -1.119141,-1.3007813 H 36.789062 c -0.829999,0 -1.368515,0.4707813 -1.478515,1.3007813 L 33.460938,15.689453 h -15.88086 l 1.84961,-13.1992186 c 0.12,-0.83 -0.289141,-1.3007813 -1.119141,-1.3007813 z" />
      <path
         id="path9-6"
         class="st1"
         d="m 719.27157,-37.230917 c -0.83,0 -1.37047,0.470781 -1.48047,1.300781 l -5.4707,38.970704 c -0.12,0.829999 0.28133,1.298828 1.11133,1.298828 h 11.33984 c 0.83,0 1.35852,-0.468843 1.47852,-1.298828 l 2.04101,-14.5 h 15.87891 l -2.03906,14.5 c -0.11,0.829999 0.28914,1.298828 1.11914,1.298828 h 11.33984 c 0.83,0 1.36047,-0.468843 1.48047,-1.298828 l 5.48047,-38.970704 c 0.12,-0.83 -0.28914,-1.300781 -1.11914,-1.300781 h -11.3418 c -0.83,0 -1.36851,0.470781 -1.47851,1.300781 l -1.84961,13.199219 h -15.88086 l 1.84961,-13.199219 c 0.12,-0.83 -0.28914,-1.300781 -1.11914,-1.300781 z m 324.80863,0 c -0.83,0 -1.3685,0.470781 -1.4785,1.300781 l -5.4707,38.970704 c -0.1201,0.829999 0.2793,1.298828 1.1093,1.298828 h 11.3399 c 0.83,0 1.3704,-0.468843 1.4804,-1.298828 l 1.961,-13.970704 h 4.1992 l 7.6602,14.279297 c 0.36,0.69 0.9602,0.980469 1.7402,0.980469 h 11.9805 c 1.25,0 1.869,-0.800859 1.289,-1.880859 l -10.9297,-19.878907 15.4707,-17.849609 c 0.96,-1.12 0.5396,-1.951172 -0.7304,-1.951172 h -11.67 c -0.77,0 -1.4612,0.310469 -2.0312,0.980469 l -12.0098,14.050781 h -3.3886 l 1.9296,-13.730469 c 0.12,-0.83 -0.2813,-1.300781 -1.1113,-1.300781 z"
         style="fill:#1820dd" />
    </g>
  </g>
  <g
     inkscape:groupmode="layer"
     id="g2868"
     inkscape:label="Layer 1 copy"
     style="display:inline"
     sodipodi:insensitive="true"
     transform="translate(0.1272087,-0.08725797)">
    <g
       class="st2"
       clip-path="url(#clippath)"
       id="g2866"
       transform="translate(-381.99,-270.99)">
      <path
         id="path2862"
         class="st1"
         transform="translate(381.99,270.99)"
         d="m 51.779297,1.1894531 c -0.83,0 -1.368516,0.4707813 -1.478516,1.3007813 L 44.830078,41.460938 c -0.12,0.829999 0.279375,1.298828 1.109375,1.298828 h 11.339844 c 0.83,0 1.370469,-0.468844 1.480469,-1.298828 l 1.960937,-13.970704 h 4.199219 l 7.660156,14.279297 c 0.36,0.69 0.960235,0.980469 1.740234,0.980469 h 11.980469 c 1.25,0 1.869063,-0.800859 1.289063,-1.880859 L 76.660156,20.990234 92.130859,3.140625 c 0.96,-1.12 0.539532,-1.9511719 -0.730468,-1.9511719 H 79.730469 c -0.77,0 -1.46125,0.3104688 -2.03125,0.9804688 L 65.689453,16.220703 H 62.300781 L 64.230469,2.4902344 c 0.12,-0.83 -0.281328,-1.3007813 -1.111328,-1.3007813 z" />
      <path
         id="path2864"
         class="st1"
         d="m 719.27157,-37.230917 c -0.83,0 -1.37047,0.470781 -1.48047,1.300781 l -5.4707,38.970704 c -0.12,0.829999 0.28133,1.298828 1.11133,1.298828 h 11.33984 c 0.83,0 1.35852,-0.468843 1.47852,-1.298828 l 2.04101,-14.5 h 15.87891 l -2.03906,14.5 c -0.11,0.829999 0.28914,1.298828 1.11914,1.298828 h 11.33984 c 0.83,0 1.36047,-0.468843 1.48047,-1.298828 l 5.48047,-38.970704 c 0.12,-0.83 -0.28914,-1.300781 -1.11914,-1.300781 h -11.3418 c -0.83,0 -1.36851,0.470781 -1.47851,1.300781 l -1.84961,13.199219 h -15.88086 l 1.84961,-13.199219 c 0.12,-0.83 -0.28914,-1.300781 -1.11914,-1.300781 z m 324.80863,0 c -0.83,0 -1.3685,0.470781 -1.4785,1.300781 l -5.4707,38.970704 c -0.1201,0.829999 0.2793,1.298828 1.1093,1.298828 h 11.3399 c 0.83,0 1.3704,-0.468843 1.4804,-1.298828 l 1.961,-13.970704 h 4.1992 l 7.6602,14.279297 c 0.36,0.69 0.9602,0.980469 1.7402,0.980469 h 11.9805 c 1.25,0 1.869,-0.800859 1.289,-1.880859 l -10.9297,-19.878907 15.4707,-17.849609 c 0.96,-1.12 0.5396,-1.951172 -0.7304,-1.951172 h -11.67 c -0.77,0 -1.4612,0.310469 -2.0312,0.980469 l -12.0098,14.050781 h -3.3886 l 1.9296,-13.730469 c 0.12,-0.83 -0.2813,-1.300781 -1.1113,-1.300781 z"
         style="fill:#1820dd" />
    </g>
  </g>
</svg>
