<svg id="Layer_1" version="1.1" width="92.998" height="43.01" xmlns="http://www.w3.org/2000/svg"><defs id="defs7"><clipPath id="clippath"><path id="rect4" style="fill:none" d="M101.99 270.99h637.23v53.21H101.99z"/></clipPath><style id="style2">.st1{fill:#1820dd}.st2{clip-path:url(#clippath)}</style></defs><g id="layer1" style="display:inline" transform="translate(.127 -.087)"><g class="st2" clip-path="url(#clippath)" id="g11" transform="translate(-101.99 -270.99)"><path id="path9" class="st1" transform="translate(101.99 270.99)" d="M6.97 1.19c-.83 0-1.37.47-1.48 1.3L.02 41.46c-.12.83.28 1.3 1.11 1.3h11.34c.83 0 1.36-.47 1.48-1.3l2.04-14.5h15.88l-2.04 14.5c-.11.83.29 1.3 1.12 1.3h11.34c.83 0 1.36-.47 1.48-1.3l5.48-38.97c.12-.83-.29-1.3-1.12-1.3H36.79c-.83 0-1.37.47-1.48 1.3l-1.85 13.2H17.58l1.85-13.2c.12-.83-.29-1.3-1.12-1.3z"/><path id="path9-6" class="st1" d="M719.272-37.23c-.83 0-1.37.47-1.48 1.3L712.32 3.04c-.12.83.282 1.3 1.112 1.3h11.34c.83 0 1.358-.47 1.478-1.3l2.041-14.5h15.879l-2.039 14.5c-.11.83.29 1.3 1.12 1.3h11.339c.83 0 1.36-.47 1.48-1.3l5.48-38.97c.12-.83-.288-1.3-1.118-1.3H749.09c-.83 0-1.369.47-1.479 1.3l-1.85 13.2h-15.88l1.85-13.2c.12-.83-.29-1.3-1.12-1.3zm324.808 0c-.83 0-1.368.47-1.478 1.3l-5.471 38.97c-.12.83.28 1.3 1.11 1.3h11.34c.83 0 1.37-.47 1.48-1.3l1.96-13.97h4.2l7.66 14.28c.36.69.96.98 1.74.98h11.98c1.25 0 1.87-.801 1.29-1.881l-10.93-19.88 15.47-17.849c.96-1.12.54-1.95-.73-1.95h-11.67c-.77 0-1.46.31-2.03.98l-12.01 14.05h-3.39l1.93-13.73c.12-.83-.281-1.3-1.111-1.3z" style="fill:#1820dd"/></g></g><g id="g2868" style="display:inline" transform="translate(.127 -.087)"><g class="st2" clip-path="url(#clippath)" id="g2866" transform="translate(-381.99 -270.99)"><path id="path2862" class="st1" transform="translate(381.99 270.99)" d="M51.78 1.19c-.83 0-1.37.47-1.48 1.3l-5.47 38.97c-.12.83.28 1.3 1.11 1.3h11.34c.83 0 1.37-.47 1.48-1.3l1.96-13.97h4.2l7.66 14.28c.36.69.96.98 1.74.98H86.3c1.25 0 1.87-.8 1.29-1.88L76.66 20.99 92.13 3.14c.96-1.12.54-1.95-.73-1.95H79.73c-.77 0-1.46.31-2.03.98L65.69 16.22H62.3l1.93-13.73c.12-.83-.28-1.3-1.11-1.3z"/><path id="path2864" class="st1" d="M719.272-37.23c-.83 0-1.37.47-1.48 1.3L712.32 3.04c-.12.83.282 1.3 1.112 1.3h11.34c.83 0 1.358-.47 1.478-1.3l2.041-14.5h15.879l-2.039 14.5c-.11.83.29 1.3 1.12 1.3h11.339c.83 0 1.36-.47 1.48-1.3l5.48-38.97c.12-.83-.288-1.3-1.118-1.3H749.09c-.83 0-1.369.47-1.479 1.3l-1.85 13.2h-15.88l1.85-13.2c.12-.83-.29-1.3-1.12-1.3zm324.808 0c-.83 0-1.368.47-1.478 1.3l-5.471 38.97c-.12.83.28 1.3 1.11 1.3h11.34c.83 0 1.37-.47 1.48-1.3l1.96-13.97h4.2l7.66 14.28c.36.69.96.98 1.74.98h11.98c1.25 0 1.87-.801 1.29-1.881l-10.93-19.88 15.47-17.849c.96-1.12.54-1.95-.73-1.95h-11.67c-.77 0-1.46.31-2.03.98l-12.01 14.05h-3.39l1.93-13.73c.12-.83-.281-1.3-1.111-1.3z" style="fill:#1820dd"/></g></g></svg>