<svg width="637.23" height="53.21" xmlns="http://www.w3.org/2000/svg"><defs><clipPath id="a"><path style="fill:none" d="M101.99 270.99h637.23v53.21H101.99z"/></clipPath></defs><g clip-path="url(#a)" transform="translate(-101.99 -270.99)" style="clip-path:url(#a)"><path d="M718.41 304.29c-2.49 0-4.37-1.71-4.37-5.07 0-4.07 2.3-8.13 6.23-8.13 2.56 0 4.36 1.77 4.36 5.07 0 4.06-2.27 8.12-6.22 8.12m9.64-22.65c-.83 0-1.37.47-1.48 1.3l-.51 3.66c-1.41-3.78-4.15-5.79-8.88-5.79-10.22 0-16.83 8.69-16.83 19.31 0 8.38 4.45 14.47 12.14 14.47 4.17 0 7.81-2.29 10.44-5.71l-.5 3.58c-.12.83.29 1.3 1.12 1.3h10.03c.83 0 1.36-.47 1.48-1.3l4.15-29.52c.12-.83-.29-1.3-1.12-1.3h-10.03zm-50.53 22.66c-2.49 0-4.37-1.71-4.37-5.07 0-4.07 2.29-8.13 6.22-8.13 2.56 0 4.36 1.77 4.36 5.07 0 4.06-2.27 8.12-6.22 8.12m10.6-33.29c-.83 0-1.37.47-1.48 1.3l-1.88 13.35c-1.5-3.17-4.16-4.84-8.48-4.84-10.22 0-16.84 8.69-16.84 19.31 0 8.38 4.45 14.47 12.15 14.47 4.17 0 7.81-2.29 10.44-5.71l-.5 3.58c-.12.83.29 1.3 1.12 1.3h10.03c.83 0 1.37-.47 1.48-1.3l5.64-40.16c.12-.83-.29-1.3-1.12-1.3H688.1Zm-58.42 43.61c5.24 0 8.64-2.12 11.54-6.08l-.55 3.92c-.11.83.29 1.3 1.12 1.3h10.03c.83 0 1.37-.47 1.48-1.3l4.15-29.52c.12-.83-.29-1.3-1.12-1.3h-10.56c-.83 0-1.36.47-1.48 1.3l-2.26 16.1c-.45 3.22-2.4 4.81-4.78 4.81-2.38 0-3.71-1.59-3.26-4.81l2.26-16.1c.12-.83-.28-1.3-1.11-1.3h-10.57c-.83 0-1.36.47-1.48 1.3l-2.73 19.44c-1.09 7.75 1.76 12.24 9.33 12.24m-32.61-10.31c-2.56 0-4.36-1.76-4.36-5.07 0-4.06 2.27-8.12 6.22-8.12 2.49 0 4.37 1.71 4.37 5.07 0 4.07-2.29 8.12-6.22 8.12m7.77-23.49c-4.16 0-7.8 2.29-10.44 5.71l.5-3.58c.12-.83-.28-1.3-1.11-1.3h-10.03c-.83 0-1.37.47-1.48 1.3l-5.62 39.97c-.11.83.29 1.3 1.12 1.3h10.57c.83 0 1.37-.47 1.48-1.3l1.84-13.13c1.49 3.14 4.12 4.8 8.42 4.8 10.22 0 16.9-8.81 16.9-19.55 0-8.14-4.45-14.23-12.15-14.23m-48.97 23.5c-2.49 0-4.37-1.71-4.37-5.07 0-4.07 2.29-8.13 6.23-8.13 2.56 0 4.36 1.77 4.36 5.07 0 4.06-2.28 8.12-6.22 8.12m9.64-22.65c-.83 0-1.37.47-1.48 1.3l-.51 3.66c-1.41-3.78-4.14-5.79-8.88-5.79-10.22 0-16.84 8.69-16.84 19.31 0 8.38 4.45 14.47 12.15 14.47 4.16 0 7.8-2.29 10.44-5.71l-.5 3.58c-.12.83.28 1.3 1.11 1.3h10.03c.83 0 1.37-.47 1.48-1.3l4.15-29.52c.11-.83-.29-1.3-1.12-1.3zm-28.72-.6c-2.38 0-6.32 2.23-9.37 9.41l1.06-7.51c.12-.83-.29-1.3-1.12-1.3h-10.03c-.83 0-1.37.47-1.48 1.3l-4.15 29.52c-.12.83.29 1.3 1.12 1.3h10.57c.83 0 1.36-.47 1.48-1.3l1.36-9.69c.88-6.24 5.17-7.16 8.63-6.35.91.21 1.23-.16 1.35-1.05l1.83-13.03c.13-.9-.26-1.3-1.25-1.3m-47.3 23.26c-2.49 0-4.37-1.71-4.37-5.07 0-4.07 2.3-8.13 6.23-8.13 2.56 0 4.36 1.77 4.36 5.07 0 4.06-2.27 8.12-6.22 8.12m9.64-22.65c-.83 0-1.37.47-1.48 1.3l-.51 3.66c-1.41-3.78-4.15-5.79-8.88-5.79-10.22 0-16.84 8.69-16.84 19.31 0 8.38 4.45 14.47 12.15 14.47 4.17 0 7.8-2.29 10.43-5.71l-.5 3.58c-.11.83.29 1.3 1.12 1.3h10.03c.83 0 1.37-.47 1.48-1.3l4.15-29.52c.12-.83-.28-1.3-1.11-1.3h-10.03zm-37.44-9.45c-.77 0-1.46.31-2.03.98l-12.01 14.05h-3.39l1.93-13.73c.12-.83-.28-1.3-1.11-1.3h-11.34c-.83 0-1.37.47-1.48 1.3l-5.47 38.97c-.12.83.28 1.3 1.11 1.3h11.34c.83 0 1.37-.47 1.48-1.3l1.96-13.97h4.2l7.66 14.28c.36.69.96.98 1.74.98h11.98c1.25 0 1.87-.8 1.29-1.88l-10.93-19.88-1.57.06 1.57-.06 15.47-17.85c.96-1.12.54-1.95-.73-1.95zm-74.05 32.11c-2.49 0-4.37-1.71-4.37-5.07 0-4.07 2.3-8.13 6.23-8.13 2.56 0 4.36 1.77 4.36 5.07 0 4.06-2.27 8.12-6.22 8.12m9.64-22.65c-.83 0-1.37.47-1.48 1.3l-.51 3.66c-1.41-3.78-4.15-5.79-8.88-5.79-10.22 0-16.83 8.69-16.83 19.31 0 8.38 4.45 14.47 12.14 14.47 4.17 0 7.81-2.29 10.44-5.71l-.5 3.58c-.12.83.29 1.3 1.12 1.3h10.03c.83 0 1.36-.47 1.48-1.3l4.15-29.52c.12-.83-.29-1.3-1.12-1.3h-10.03zm-38.19 0 1.06-7.55c.14-1-.54-1.35-1.61-1.06l-10.4 2.92c-.99.27-1.67.84-1.81 1.84l-.54 3.84h-3.63c-.83 0-1.37.47-1.48 1.3l-1.06 7.57c-.12.83.29 1.3 1.12 1.3h3.63l-1.58 11.23c-1.04 7.42 3.55 11.55 10.99 11.55 5.07 0 8.33-1.27 11.83-3.17.9-.49 1.17-1.23.93-2.09l-1.66-5.8c-.27-.97-1.02-1.12-2.06-.67-1.16.51-2.07.84-3.41.84-2.51 0-3.19-1.48-2.79-4.31l1.06-7.59h8.24c.83 0 1.36-.47 1.48-1.3l1.06-7.57c.12-.83-.29-1.3-1.12-1.3h-8.24zm-42.1 22.66c-2.49 0-4.37-1.71-4.37-5.07 0-4.07 2.29-8.13 6.23-8.13 2.56 0 4.36 1.77 4.36 5.07 0 4.06-2.28 8.12-6.22 8.12m9.64-22.65c-.83 0-1.37.47-1.48 1.3l-.51 3.66c-1.41-3.78-4.15-5.79-8.88-5.79-10.22 0-16.84 8.69-16.84 19.31 0 8.38 4.45 14.47 12.15 14.47 4.17 0 7.8-2.29 10.43-5.71l-.5 3.58c-.11.83.29 1.3 1.12 1.3h10.03c.83 0 1.37-.47 1.48-1.3l4.15-29.52c.12-.83-.28-1.3-1.11-1.3h-10.03zm-28.72-.6c-2.38 0-6.32 2.23-9.37 9.41l1.06-7.51c.12-.83-.29-1.3-1.12-1.3h-10.03c-.83 0-1.36.47-1.48 1.3l-4.15 29.52c-.12.83.29 1.3 1.12 1.3h10.57c.83 0 1.36-.47 1.48-1.3l1.36-9.69c.88-6.24 5.17-7.16 8.63-6.35.91.21 1.23-.16 1.35-1.05l1.83-13.03c.13-.9-.26-1.3-1.25-1.3m-46.73 23.26c-2.49 0-4.41-1.69-4.41-5.06 0-4.09 2.19-8.14 6.26-8.14 2.49 0 4.41 1.69 4.41 5.06 0 4.08-2.19 8.14-6.26 8.14m3-23.49c-12.09 0-20.99 7.67-20.99 19.34 0 9.39 7.62 14.44 16.84 14.44 12.09 0 20.99-7.67 20.99-19.34 0-9.39-7.62-14.44-16.84-14.44m-50.14 32.95c.84 0 1.36-.46 1.48-1.3l2.26-16.1c.46-3.24 2.43-4.82 5.07-4.82s4.01 1.59 3.55 4.82l-2.26 16.1c-.12.83.29 1.3 1.12 1.3h10.57c.83 0 1.37-.47 1.48-1.3l2.73-19.44c1.09-7.75-1.76-12.24-9.39-12.24-5.3 0-9.17 2.11-12.07 6.07l.55-3.91c.12-.84-.28-1.3-1.12-1.3h-10.03c-.84 0-1.36.46-1.48 1.3l-4.15 29.52c-.12.84.28 1.3 1.11 1.3h10.57zm-33.32-9.46c-2.49 0-4.4-1.69-4.4-5.06 0-4.09 2.19-8.14 6.26-8.14 2.49 0 4.4 1.69 4.4 5.06 0 4.08-2.19 8.14-6.26 8.14m3.01-23.49c-12.09 0-20.99 7.67-20.99 19.34 0 9.39 7.62 14.44 16.84 14.44 12.09 0 20.99-7.67 20.99-19.34 0-9.39-7.62-14.44-16.84-14.44m-34.98-8.62c-.83 0-1.37.47-1.48 1.3l-1.85 13.2h-15.88l1.85-13.2c.12-.83-.29-1.3-1.12-1.3h-11.34c-.83 0-1.37.47-1.48 1.3l-5.47 38.97c-.12.83.28 1.3 1.11 1.3h11.34c.83 0 1.36-.47 1.48-1.3l2.04-14.5h15.88l-2.04 14.5c-.11.83.29 1.3 1.12 1.3h11.34c.83 0 1.36-.47 1.48-1.3l5.48-38.97c.12-.83-.29-1.3-1.12-1.3z" style="fill:#1820dd"/></g></svg>