<?xml version="1.0" encoding="UTF-8" standalone="no"?>
<svg
   width="979"
   height="900"
   viewBox="0 0 979 900"
   fill="none"
   version="1.1"
   id="svg13"
   sodipodi:docname="homepage-hero-decor.svg"
   inkscape:version="1.1.2 (0a00cf5339, 2022-02-04)"
   xmlns:inkscape="http://www.inkscape.org/namespaces/inkscape"
   xmlns:sodipodi="http://sodipodi.sourceforge.net/DTD/sodipodi-0.dtd"
   xmlns="http://www.w3.org/2000/svg"
   xmlns:svg="http://www.w3.org/2000/svg">
  <sodipodi:namedview
     id="namedview15"
     pagecolor="#ffffff"
     bordercolor="#000000"
     borderopacity="0.25"
     inkscape:pageshadow="2"
     inkscape:pageopacity="0.0"
     inkscape:pagecheckerboard="0"
     showgrid="false"
     inkscape:zoom="4.9151778"
     inkscape:cx="483.60407"
     inkscape:cy="63.273398"
     inkscape:window-width="1920"
     inkscape:window-height="957"
     inkscape:window-x="0"
     inkscape:window-y="0"
     inkscape:window-maximized="1"
     inkscape:current-layer="layer1" />
  <g
     clip-path="url(#clip0_0_3)"
     id="g6">
    <path
       d="M897.759 835.342L583.021 100H434.174H363L586.43 644.658L694 900H979V835.342H897.759Z"
       fill="white"
       id="path4" />
  </g>
  <g
     inkscape:groupmode="layer"
     id="layer1"
     inkscape:label="boottom"
     style="display:inline">
    <path
       id="path4-2-1"
       style="fill:#ffffff"
       d="M 318.97656,0 542.40625,544.6582 649.97656,800 h 183.40235 c 0.43898,-1.15564 0.85734,-2.3193 1.32226,-3.46484 1.88578,-4.77984 3.80576,-9.53776 6.30274,-14.04493 2.07548,-4.09755 4.1303,-8.20588 6.14843,-12.33203 -0.69003,-1.02079 -1.36122,-2.05423 -2.01562,-3.09961 -0.10559,-0.16867 0.19777,0.34504 0.29687,0.51758 0.0411,0.0655 0.17055,0.25837 0.12305,0.19727 -1.5696,-2.01931 -2.88949,-4.1687 -4.07226,-6.4336 -0.52672,-1.0519 -0.50274,-1.00806 -0.78516,-1.58203 -0.0731,-0.0461 -0.11708,-0.12605 -0.17578,-0.18945 -2.03627,-2.07361 -3.61542,-4.45701 -5.125,-6.92578 -1.55246,-2.78972 -2.64504,-5.78381 -3.51758,-8.84375 -1.76874,-6.11896 -0.0206,-11.84829 2.26367,-17.36524 2.64981,-6.39987 6.02412,-11.07585 9.66016,-14.29492 L 538.99805,0 H 390.15039 Z" />
  </g>
  <g
     inkscape:groupmode="layer"
     id="layer2"
     inkscape:label="top"
     sodipodi:insensitive="true"
     style="display:inline">
    <path
       d="M -164,0 H 321.362 L 694,900 h -858 z"
       fill="#C0E3E5"
       id="path2" />
    <path
       d="M 896.27237,834.60788 581.53437,99.265882 h -148.847 -71.174 l 223.43,544.657998 107.57,255.342 H 977.5133 v -64.658 z"
       fill="#ffffff"
       id="path4-2"
       style="fill:#ffffff" />
  </g>
  <g
     inkscape:groupmode="layer"
     id="g869"
     inkscape:label="boottom copy"
     style="display:inline"
     sodipodi:insensitive="true">
    <path
       id="path867"
       style="fill:#ffffff"
       d="m 320.80078,0 223.42969,544.6582 10.52539,24.98438 c 3.0019,-1.96251 6.15931,-3.69494 9.25781,-5.49414 3.14885,-1.77294 6.12329,-3.8546 8.91016,-6.15235 3.10991,-2.75736 6.28525,-5.4335 9.46875,-8.10547 3.91933,-3.35868 7.51735,-7.08078 11.16601,-10.72851 3.3433,-3.34892 6.6737,-6.7122 10.02149,-10.05664 3.11779,-3.20138 6.32529,-6.29323 9.76953,-9.14063 5.03994,-3.96027 10.39848,-7.48937 15.81055,-10.91406 5.67567,-3.62323 11.60196,-6.82282 17.40039,-10.23828 5.81718,-3.43792 11.41381,-7.22854 17.14843,-10.79883 0.44884,-0.25543 0.87275,-0.55007 1.31836,-0.81055 -0.19585,-0.28949 -0.42619,-0.55441 -0.61914,-0.8457 -2.44912,-3.75377 -4.77364,-7.58716 -7.20703,-11.35156 -2.71098,-4.34021 -5.42411,-8.68502 -7.92578,-13.15039 -2.97071,-5.31267 -5.7666,-10.71372 -8.58594,-16.10742 -2.6697,-5.10445 -5.26212,-10.25409 -7.44922,-15.58789 -2.03662,-5.13099 -3.75024,-10.3823 -5.07031,-15.7461 -1.52365,-5.61883 -3.27452,-11.18158 -5.8164,-16.4375 -3.02776,-6.71731 -6.12388,-13.40781 -8.32813,-20.45703 -2.67351,-8.04683 -5.09484,-16.17829 -7.80273,-24.21484 -3.71226,-11.21637 -7.37109,-22.50709 -12.23633,-33.28516 -0.72946,-1.53061 -1.41523,-3.08335 -2.18945,-4.5918 -4.18824,-8.15994 -9.29939,-15.88525 -12.48438,-24.53515 -3.69761,-9.58677 -6.72152,-19.4051 -8.91602,-29.45117 -2.24377,-9.49214 -4.28853,-19.04302 -7.05078,-28.40235 -3.16919,-11.41245 -6.1132,-22.88843 -8.86718,-34.4082 -2.33135,-9.59804 -4.62316,-19.20032 -6.77735,-28.83984 -2.20094,-9.74636 -4.10296,-19.55939 -5.69726,-29.42383 -1.8555,-12.18394 -3.04131,-24.47911 -5.61719,-36.54688 -3.2468,-15.164085 -7.63209,-30.055583 -11.70313,-45.013669 -2.0758,-7.162494 -4.24759,-14.283665 -6.59961,-21.361329 -0.79698,-2.398259 -3.35203,-9.871656 -4.36523,-12.453124 -0.58165,-1.481947 -1.27001,-2.920669 -1.9043,-4.38086 C 508.96123,14.274867 505.74061,8.125959 502.70312,1.8808594 502.38364,1.2240025 502.23501,0.63622529 501.96875,0 H 391.97461 Z m 385.13281,457.13672 c -0.55741,2.0593 -1.08551,4.54856 -1.60547,7.2539 1.15025,-0.47045 2.26388,-1.02503 3.41993,-1.47656 0.78116,-0.28562 1.59568,-0.47216 2.38476,-0.73633 -0.96784,-1.02685 -1.90991,-2.077 -2.77539,-3.19726 -0.49977,-0.5961 -0.93323,-1.24164 -1.42383,-1.84375 z M 559.58008,570.11914 c -0.35646,-0.0149 -0.66732,-0.004 -0.91992,0.0273 -1.21926,0.15084 -1.18057,0.65871 1.07226,0.31641 0.34921,-0.0602 0.693,-0.14774 1.04102,-0.21484 -0.43484,-0.0734 -0.8369,-0.11405 -1.19336,-0.12891 z" />
  </g>
  <defs
     id="defs11">
    <clipPath
       id="clip0_0_3">
      <rect
         width="979"
         height="900"
         fill="white"
         id="rect8" />
    </clipPath>
  </defs>
</svg>
