<svg width="32.344" height="32.344" fill="none" xmlns="http://www.w3.org/2000/svg"><path fill-rule="evenodd" clip-rule="evenodd" d="M9.505.097C11.229.017 11.779 0 16.172 0s4.943.02 6.666.097c1.723.078 2.9.353 3.928.751a7.957 7.957 0 0 1 2.864 1.867 7.9 7.9 0 0 1 1.864 2.863c.4 1.029.674 2.205.753 3.925.08 1.728.097 2.278.097 6.67 0 4.392-.019 4.942-.097 6.666-.078 1.72-.353 2.897-.753 3.926a7.933 7.933 0 0 1-1.864 2.865 7.93 7.93 0 0 1-2.864 1.864c-1.029.4-2.205.674-3.925.753-1.726.08-2.276.097-6.669.097s-4.943-.019-6.667-.097c-1.72-.078-2.897-.353-3.926-.753a7.936 7.936 0 0 1-2.865-1.864 7.928 7.928 0 0 1-1.866-2.864C.45 25.737.176 24.561.097 22.841.017 21.113 0 20.564 0 16.172c0-4.393.02-4.943.097-6.666.078-1.723.353-2.899.751-3.928a7.933 7.933 0 0 1 1.867-2.864A7.927 7.927 0 0 1 5.578.848C6.607.45 7.783.176 9.503.097Zm13.202 2.911c-1.705-.078-2.217-.094-6.535-.094s-4.83.016-6.535.094c-1.577.072-2.433.335-3.004.557a5.022 5.022 0 0 0-1.86 1.209 5.016 5.016 0 0 0-1.208 1.86c-.222.57-.485 1.426-.557 3.003-.078 1.705-.094 2.217-.094 6.535s.016 4.83.094 6.535c.072 1.578.335 2.433.557 3.004a5.02 5.02 0 0 0 1.209 1.86 5.02 5.02 0 0 0 1.86 1.208c.57.222 1.426.485 3.003.557 1.705.078 2.216.094 6.535.094 4.32 0 4.83-.016 6.535-.094 1.578-.072 2.433-.335 3.004-.557a5.02 5.02 0 0 0 1.86-1.209 5.02 5.02 0 0 0 1.208-1.86c.222-.57.485-1.425.557-3.003.078-1.705.094-2.217.094-6.535s-.016-4.83-.094-6.535c-.072-1.577-.335-2.433-.557-3.004a5.023 5.023 0 0 0-1.209-1.86 5.018 5.018 0 0 0-1.86-1.208c-.57-.222-1.425-.485-3.003-.557zm-8.6 18.15a5.394 5.394 0 0 0 5.88-8.801 5.397 5.397 0 0 0-8.977 5.382 5.396 5.396 0 0 0 3.096 3.418zm-3.813-10.864A8.312 8.312 0 1 1 22.05 22.05a8.312 8.312 0 0 1-11.756-11.756zm16.034-1.196a1.967 1.967 0 1 0-2.699-2.861 1.967 1.967 0 0 0 2.7 2.86z" fill="#1820dd"/></svg>