<svg width="32.344" height="32.344" fill="none" xmlns="http://www.w3.org/2000/svg"><path d="M0 2.317C0 1.037 1.063 0 2.375 0H29.97c1.312 0 2.375 1.037 2.375 2.317v27.71c0 1.28-1.063 2.317-2.375 2.317H2.375C1.063 32.344 0 31.307 0 30.027Zm9.992 24.76V12.47H5.14v14.605ZM7.566 10.474c1.693 0 2.746-1.12 2.746-2.522-.03-1.434-1.051-2.523-2.713-2.523-1.662 0-2.747 1.091-2.747 2.523 0 1.403 1.053 2.522 2.682 2.522zm9.922 16.601V18.92c0-.436.032-.873.162-1.184.35-.872 1.148-1.775 2.49-1.775 1.757 0 2.458 1.338 2.458 3.303v7.813h4.854V18.7c0-4.488-2.393-6.574-5.587-6.574-2.576 0-3.73 1.415-4.377 2.412v.05h-.032l.032-.05V12.47h-4.852c.061 1.37 0 14.605 0 14.605z" fill="#C0E3E5"/></svg>