<svg width="23.247" height="27.469" fill="none" xmlns="http://www.w3.org/2000/svg"><path d="M7.848 27.47c-.458-.074-.92-.126-1.373-.224C3.322 26.563.731 23.832.146 20.59c-.823-4.56 1.903-8.867 6.281-9.921a8.028 8.028 0 0 1 2.878-.156c.075.01.148.034.23.054v4.511c-.253-.046-.492-.098-.735-.132-2.075-.295-4.032 1.203-4.365 3.335-.336 2.156 1.022 4.2 3.08 4.634 2.404.505 4.649-1.33 4.685-3.876.033-2.345.015-4.69.016-7.034V0h4.326c.06 1.887.695 3.527 1.993 4.856 1.298 1.328 2.879 1.98 4.712 2.015v4.458a10.398 10.398 0 0 1-3.506-.59 10.972 10.972 0 0 1-3.189-1.763v.35c.011 3.15.026 6.3.033 9.45.009 4.1-2.542 7.477-6.385 8.444-.4.1-.815.132-1.223.197-.084.014-.166.034-.25.052h-.88z" fill="#C0E3E5"/></svg>