<svg width="979" height="900" fill="none" xmlns="http://www.w3.org/2000/svg"><g clip-path="url(#a)"><path d="M897.759 835.342 583.021 100H363l223.43 544.658L694 900h285v-64.658h-81.241Z" fill="#fff"/></g><g style="display:inline"><path style="fill:#fff" d="m318.977 0 223.43 544.658L649.976 800h183.402c.439-1.156.857-2.32 1.322-3.465 1.886-4.78 3.806-9.538 6.303-14.045a987.658 987.658 0 0 0 6.148-12.332c-.69-1.02-1.36-2.054-2.015-3.1-.106-.168.197.346.297.518.04.066.17.259.123.197-1.57-2.019-2.89-4.168-4.073-6.433-.526-1.052-.502-1.008-.785-1.582-.073-.046-.117-.126-.176-.19-2.036-2.073-3.615-4.457-5.125-6.925-1.552-2.79-2.645-5.784-3.517-8.844-1.769-6.12-.02-11.848 2.264-17.365 2.65-6.4 6.024-11.076 9.66-14.295L538.998 0H390.15Z"/></g><g style="display:inline"><path d="M-164 0h485.362L694 900h-858z" fill="#C0E3E5"/><path d="M896.272 834.608 581.534 99.266H361.513l223.43 544.658 107.57 255.342h285v-64.658z" fill="#fff" style="fill:#fff"/></g><g style="display:inline"><path style="fill:#fff" d="m320.8 0 223.43 544.658 10.526 24.985c3.002-1.963 6.16-3.695 9.258-5.495 3.149-1.773 6.123-3.854 8.91-6.152 3.11-2.757 6.285-5.433 9.469-8.105 3.919-3.36 7.517-7.081 11.166-10.729 3.343-3.349 6.673-6.712 10.021-10.057 3.118-3.2 6.325-6.293 9.77-9.14 5.04-3.96 10.398-7.49 15.81-10.914 5.676-3.623 11.602-6.823 17.4-10.239 5.818-3.437 11.414-7.228 17.149-10.798.449-.256.873-.55 1.318-.81-.196-.29-.426-.555-.619-.847-2.449-3.753-4.773-7.587-7.207-11.351-2.71-4.34-5.424-8.685-7.926-13.15-2.97-5.313-5.766-10.714-8.586-16.108-2.67-5.104-5.262-10.254-7.449-15.588-2.036-5.13-3.75-10.382-5.07-15.746-1.524-5.619-3.275-11.182-5.816-16.437-3.028-6.718-6.124-13.408-8.329-20.457-2.673-8.047-5.094-16.179-7.802-24.215-3.713-11.217-7.371-22.507-12.237-33.285-.73-1.531-1.415-3.084-2.19-4.592-4.187-8.16-9.299-15.886-12.484-24.535-3.697-9.587-6.721-19.406-8.916-29.452-2.243-9.492-4.288-19.043-7.05-28.402a981.415 981.415 0 0 1-8.867-34.408c-2.332-9.598-4.624-19.2-6.778-28.84a484.574 484.574 0 0 1-5.697-29.424c-1.856-12.184-3.041-24.479-5.617-36.547-3.247-15.164-7.632-30.055-11.703-45.013-2.076-7.163-4.248-14.284-6.6-21.362-.797-2.398-3.352-9.871-4.365-12.453-.582-1.482-1.27-2.92-1.905-4.38-2.853-6.337-6.073-12.486-9.11-18.731-.32-.657-.469-1.245-.735-1.881H391.975Zm385.134 457.137c-.558 2.059-1.086 4.548-1.606 7.254 1.15-.47 2.264-1.025 3.42-1.477.781-.286 1.596-.472 2.385-.736-.968-1.027-1.91-2.077-2.776-3.198-.5-.596-.933-1.241-1.423-1.843zM559.58 570.119a5.7 5.7 0 0 0-.92.027c-1.22.151-1.18.66 1.072.317.35-.06.693-.148 1.041-.215a9.63 9.63 0 0 0-1.193-.129z"/></g><defs><clipPath id="a"><path fill="#fff" d="M0 0h979v900H0z"/></clipPath></defs></svg>