<?xml version="1.0" encoding="UTF-8" standalone="no"?>
<svg
   id="Layer_1"
   version="1.1"
   viewBox="0 0 637.22997 53.209985"
   sodipodi:docname="Untitled-1.svg"
   width="637.22998"
   height="53.209988"
   inkscape:version="1.1.2 (0a00cf5339, 2022-02-04)"
   xmlns:inkscape="http://www.inkscape.org/namespaces/inkscape"
   xmlns:sodipodi="http://sodipodi.sourceforge.net/DTD/sodipodi-0.dtd"
   xmlns="http://www.w3.org/2000/svg"
   xmlns:svg="http://www.w3.org/2000/svg">
  <sodipodi:namedview
     id="namedview14"
     pagecolor="#ffffff"
     bordercolor="#000000"
     borderopacity="0.25"
     inkscape:pageshadow="2"
     inkscape:pageopacity="0.0"
     inkscape:pagecheckerboard="0"
     showgrid="false"
     inkscape:zoom="1.3136675"
     inkscape:cx="318.95439"
     inkscape:cy="26.642968"
     inkscape:window-width="1920"
     inkscape:window-height="957"
     inkscape:window-x="0"
     inkscape:window-y="0"
     inkscape:window-maximized="1"
     inkscape:current-layer="Layer_1" />
  <!-- Generator: Adobe Illustrator 29.0.1, SVG Export Plug-In . SVG Version: 2.1.0 Build 192)  -->
  <defs
     id="defs7">
    <style
       id="style2">
      .st0 {
        fill: none;
      }

      .st1 {
        fill: #1820dd;
      }

      .st2 {
        clip-path: url(#clippath);
      }
    </style>
    <clipPath
       id="clippath">
      <rect
         class="st0"
         x="101.99"
         y="270.98999"
         width="637.22998"
         height="53.209999"
         id="rect4" />
    </clipPath>
  </defs>
  <g
     class="st2"
     clip-path="url(#clippath)"
     id="g11"
     transform="translate(-101.99,-270.99)">
    <path
       class="st1"
       d="m 718.41,304.29 c -2.49,0 -4.37,-1.71 -4.37,-5.07 0,-4.07 2.3,-8.13 6.23,-8.13 2.56,0 4.36,1.77 4.36,5.07 0,4.06 -2.27,8.12 -6.22,8.12 m 9.64,-22.65 c -0.83,0 -1.37,0.47 -1.48,1.3 l -0.51,3.66 c -1.41,-3.78 -4.15,-5.79 -8.88,-5.79 -10.22,0 -16.83,8.69 -16.83,19.31 0,8.38 4.45,14.47 12.14,14.47 4.17,0 7.81,-2.29 10.44,-5.71 l -0.5,3.58 c -0.12,0.83 0.29,1.3 1.12,1.3 h 10.03 c 0.83,0 1.36,-0.47 1.48,-1.3 l 4.15,-29.52 c 0.12,-0.83 -0.29,-1.3 -1.12,-1.3 h -10.03 z m -50.53,22.66 c -2.49,0 -4.37,-1.71 -4.37,-5.07 0,-4.07 2.29,-8.13 6.22,-8.13 2.56,0 4.36,1.77 4.36,5.07 0,4.06 -2.27,8.12 -6.22,8.12 m 10.6,-33.29 c -0.83,0 -1.37,0.47 -1.48,1.3 l -1.88,13.35 c -1.5,-3.17 -4.16,-4.84 -8.48,-4.84 -10.22,0 -16.84,8.69 -16.84,19.31 0,8.38 4.45,14.47 12.15,14.47 4.17,0 7.81,-2.29 10.44,-5.71 l -0.5,3.58 c -0.12,0.83 0.29,1.3 1.12,1.3 h 10.03 c 0.83,0 1.37,-0.47 1.48,-1.3 l 5.64,-40.16 c 0.12,-0.83 -0.29,-1.3 -1.12,-1.3 H 688.1 Z m -58.42,43.61 c 5.24,0 8.64,-2.12 11.54,-6.08 l -0.55,3.92 c -0.11,0.83 0.29,1.3 1.12,1.3 h 10.03 c 0.83,0 1.37,-0.47 1.48,-1.3 l 4.15,-29.52 c 0.12,-0.83 -0.29,-1.3 -1.12,-1.3 h -10.56 c -0.83,0 -1.36,0.47 -1.48,1.3 l -2.26,16.1 c -0.45,3.22 -2.4,4.81 -4.78,4.81 -2.38,0 -3.71,-1.59 -3.26,-4.81 l 2.26,-16.1 c 0.12,-0.83 -0.28,-1.3 -1.11,-1.3 h -10.57 c -0.83,0 -1.36,0.47 -1.48,1.3 l -2.73,19.44 c -1.09,7.75 1.76,12.24 9.33,12.24 m -32.61,-10.31 c -2.56,0 -4.36,-1.76 -4.36,-5.07 0,-4.06 2.27,-8.12 6.22,-8.12 2.49,0 4.37,1.71 4.37,5.07 0,4.07 -2.29,8.12 -6.22,8.12 m 7.77,-23.49 c -4.16,0 -7.8,2.29 -10.44,5.71 l 0.5,-3.58 c 0.12,-0.83 -0.28,-1.3 -1.11,-1.3 h -10.03 c -0.83,0 -1.37,0.47 -1.48,1.3 l -5.62,39.97 c -0.11,0.83 0.29,1.3 1.12,1.3 h 10.57 c 0.83,0 1.37,-0.47 1.48,-1.3 l 1.84,-13.13 c 1.49,3.14 4.12,4.8 8.42,4.8 10.22,0 16.9,-8.81 16.9,-19.55 0,-8.14 -4.45,-14.23 -12.15,-14.23 m -48.97,23.5 c -2.49,0 -4.37,-1.71 -4.37,-5.07 0,-4.07 2.29,-8.13 6.23,-8.13 2.56,0 4.36,1.77 4.36,5.07 0,4.06 -2.28,8.12 -6.22,8.12 m 9.64,-22.65 c -0.83,0 -1.37,0.47 -1.48,1.3 l -0.51,3.66 c -1.41,-3.78 -4.14,-5.79 -8.88,-5.79 -10.22,0 -16.84,8.69 -16.84,19.31 0,8.38 4.45,14.47 12.15,14.47 4.16,0 7.8,-2.29 10.44,-5.71 l -0.5,3.58 c -0.12,0.83 0.28,1.3 1.11,1.3 h 10.03 c 0.83,0 1.37,-0.47 1.48,-1.3 l 4.15,-29.52 c 0.11,-0.83 -0.29,-1.3 -1.12,-1.3 z m -28.72,-0.6 c -2.38,0 -6.32,2.23 -9.37,9.41 l 1.06,-7.51 c 0.12,-0.83 -0.29,-1.3 -1.12,-1.3 h -10.03 c -0.83,0 -1.37,0.47 -1.48,1.3 l -4.15,29.52 c -0.12,0.83 0.29,1.3 1.12,1.3 h 10.57 c 0.83,0 1.36,-0.47 1.48,-1.3 l 1.36,-9.69 c 0.88,-6.24 5.17,-7.16 8.63,-6.35 0.91,0.21 1.23,-0.16 1.35,-1.05 l 1.83,-13.03 c 0.13,-0.9 -0.26,-1.3 -1.25,-1.3 m -47.3,23.26 c -2.49,0 -4.37,-1.71 -4.37,-5.07 0,-4.07 2.3,-8.13 6.23,-8.13 2.56,0 4.36,1.77 4.36,5.07 0,4.06 -2.27,8.12 -6.22,8.12 m 9.64,-22.65 c -0.83,0 -1.37,0.47 -1.48,1.3 l -0.51,3.66 c -1.41,-3.78 -4.15,-5.79 -8.88,-5.79 -10.22,0 -16.84,8.69 -16.84,19.31 0,8.38 4.45,14.47 12.15,14.47 4.17,0 7.8,-2.29 10.43,-5.71 l -0.5,3.58 c -0.11,0.83 0.29,1.3 1.12,1.3 h 10.03 c 0.83,0 1.37,-0.47 1.48,-1.3 l 4.15,-29.52 c 0.12,-0.83 -0.28,-1.3 -1.11,-1.3 h -10.03 z m -37.44,-9.45 c -0.77,0 -1.46,0.31 -2.03,0.98 l -12.01,14.05 h -3.39 l 1.93,-13.73 c 0.12,-0.83 -0.28,-1.3 -1.11,-1.3 h -11.34 c -0.83,0 -1.37,0.47 -1.48,1.3 l -5.47,38.97 c -0.12,0.83 0.28,1.3 1.11,1.3 h 11.34 c 0.83,0 1.37,-0.47 1.48,-1.3 l 1.96,-13.97 h 4.2 l 7.66,14.28 c 0.36,0.69 0.96,0.98 1.74,0.98 h 11.98 c 1.25,0 1.87,-0.8 1.29,-1.88 l -10.93,-19.88 -1.57,0.06 v 0 c 0,0 1.57,-0.06 1.57,-0.06 l 15.47,-17.85 c 0.96,-1.12 0.54,-1.95 -0.73,-1.95 z m -74.05,32.11 c -2.49,0 -4.37,-1.71 -4.37,-5.07 0,-4.07 2.3,-8.13 6.23,-8.13 2.56,0 4.36,1.77 4.36,5.07 0,4.06 -2.27,8.12 -6.22,8.12 m 9.64,-22.65 c -0.83,0 -1.37,0.47 -1.48,1.3 l -0.51,3.66 c -1.41,-3.78 -4.15,-5.79 -8.88,-5.79 -10.22,0 -16.83,8.69 -16.83,19.31 0,8.38 4.45,14.47 12.14,14.47 4.17,0 7.81,-2.29 10.44,-5.71 l -0.5,3.58 c -0.12,0.83 0.29,1.3 1.12,1.3 h 10.03 c 0.83,0 1.36,-0.47 1.48,-1.3 l 4.15,-29.52 c 0.12,-0.83 -0.29,-1.3 -1.12,-1.3 h -10.03 z m -38.19,0 1.06,-7.55 c 0.14,-1 -0.54,-1.35 -1.61,-1.06 l -10.4,2.92 c -0.99,0.27 -1.67,0.84 -1.81,1.84 l -0.54,3.84 h -3.63 c -0.83,0 -1.37,0.47 -1.48,1.3 l -1.06,7.57 c -0.12,0.83 0.29,1.3 1.12,1.3 h 3.63 l -1.58,11.23 c -1.04,7.42 3.55,11.55 10.99,11.55 5.07,0 8.33,-1.27 11.83,-3.17 0.9,-0.49 1.17,-1.23 0.93,-2.09 l -1.66,-5.8 c -0.27,-0.97 -1.02,-1.12 -2.06,-0.67 -1.16,0.51 -2.07,0.84 -3.41,0.84 -2.51,0 -3.19,-1.48 -2.79,-4.31 l 1.06,-7.59 h 8.24 c 0.83,0 1.36,-0.47 1.48,-1.3 l 1.06,-7.57 c 0.12,-0.83 -0.29,-1.3 -1.12,-1.3 h -8.24 z m -42.1,22.66 c -2.49,0 -4.37,-1.71 -4.37,-5.07 0,-4.07 2.29,-8.13 6.23,-8.13 2.56,0 4.36,1.77 4.36,5.07 0,4.06 -2.28,8.12 -6.22,8.12 m 9.64,-22.65 c -0.83,0 -1.37,0.47 -1.48,1.3 l -0.51,3.66 c -1.41,-3.78 -4.15,-5.79 -8.88,-5.79 -10.22,0 -16.84,8.69 -16.84,19.31 0,8.38 4.45,14.47 12.15,14.47 4.17,0 7.8,-2.29 10.43,-5.71 l -0.5,3.58 c -0.11,0.83 0.29,1.3 1.12,1.3 h 10.03 c 0.83,0 1.37,-0.47 1.48,-1.3 l 4.15,-29.52 c 0.12,-0.83 -0.28,-1.3 -1.11,-1.3 h -10.03 z m -28.72,-0.6 c -2.38,0 -6.32,2.23 -9.37,9.41 l 1.06,-7.51 c 0.12,-0.83 -0.29,-1.3 -1.12,-1.3 h -10.03 c -0.83,0 -1.36,0.47 -1.48,1.3 l -4.15,29.52 c -0.12,0.83 0.29,1.3 1.12,1.3 h 10.57 c 0.83,0 1.36,-0.47 1.48,-1.3 l 1.36,-9.69 c 0.88,-6.24 5.17,-7.16 8.63,-6.35 0.91,0.21 1.23,-0.16 1.35,-1.05 l 1.83,-13.03 c 0.13,-0.9 -0.26,-1.3 -1.25,-1.3 m -46.73,23.26 c -2.49,0 -4.41,-1.69 -4.41,-5.06 0,-4.09 2.19,-8.14 6.26,-8.14 2.49,0 4.41,1.69 4.41,5.06 0,4.08 -2.19,8.14 -6.26,8.14 m 3,-23.49 c -12.09,0 -20.99,7.67 -20.99,19.34 0,9.39 7.62,14.44 16.84,14.44 12.09,0 20.99,-7.67 20.99,-19.34 0,-9.39 -7.62,-14.44 -16.84,-14.44 m -50.14,32.95 c 0.84,0 1.36,-0.46 1.48,-1.3 l 2.26,-16.1 c 0.46,-3.24 2.43,-4.82 5.07,-4.82 2.64,0 4.01,1.59 3.55,4.82 l -2.26,16.1 c -0.12,0.83 0.29,1.3 1.12,1.3 h 10.57 c 0.83,0 1.37,-0.47 1.48,-1.3 l 2.73,-19.44 c 1.09,-7.75 -1.76,-12.24 -9.39,-12.24 -5.3,0 -9.17,2.11 -12.07,6.07 l 0.55,-3.91 c 0.12,-0.84 -0.28,-1.3 -1.12,-1.3 h -10.03 c -0.84,0 -1.36,0.46 -1.48,1.3 l -4.15,29.52 c -0.12,0.84 0.28,1.3 1.11,1.3 h 10.57 z m -33.32,-9.46 c -2.49,0 -4.4,-1.69 -4.4,-5.06 0,-4.09 2.19,-8.14 6.26,-8.14 2.49,0 4.4,1.69 4.4,5.06 0,4.08 -2.19,8.14 -6.26,8.14 m 3.01,-23.49 c -12.09,0 -20.99,7.67 -20.99,19.34 0,9.39 7.62,14.44 16.84,14.44 12.09,0 20.99,-7.67 20.99,-19.34 0,-9.39 -7.62,-14.44 -16.84,-14.44 m -34.98,-8.62 c -0.83,0 -1.37,0.47 -1.48,1.3 l -1.85,13.2 h -15.88 l 1.85,-13.2 c 0.12,-0.83 -0.29,-1.3 -1.12,-1.3 h -11.34 c -0.83,0 -1.37,0.47 -1.48,1.3 l -5.47,38.97 c -0.12,0.83 0.28,1.3 1.11,1.3 h 11.34 c 0.83,0 1.36,-0.47 1.48,-1.3 l 2.04,-14.5 h 15.88 l -2.04,14.5 c -0.11,0.83 0.29,1.3 1.12,1.3 h 11.34 c 0.83,0 1.36,-0.47 1.48,-1.3 l 5.48,-38.97 c 0.12,-0.83 -0.29,-1.3 -1.12,-1.3 z"
       id="path9" />
  </g>
</svg>
